<?xml version="1.0" encoding="UTF-8" standalone="no"?>
<!-- Created with Inkscape (http://www.inkscape.org/) -->

<svg
   width="207.37891mm"
   height="207.5918mm"
   viewBox="0 0 207.37891 207.59179"
   version="1.1"
   id="svg5"
   xml:space="preserve"
   inkscape:version="1.2.2 (b0a8486541, 2022-12-01)"
   sodipodi:docname="qperfect_logo_gdmsl.svg"
   xmlns:inkscape="http://www.inkscape.org/namespaces/inkscape"
   xmlns:sodipodi="http://sodipodi.sourceforge.net/DTD/sodipodi-0.dtd"
   xmlns="http://www.w3.org/2000/svg"
   xmlns:svg="http://www.w3.org/2000/svg"><sodipodi:namedview
     id="namedview7"
     pagecolor="#ffffff"
     bordercolor="#000000"
     borderopacity="0.25"
     inkscape:showpageshadow="2"
     inkscape:pageopacity="0.0"
     inkscape:pagecheckerboard="0"
     inkscape:deskcolor="#d1d1d1"
     inkscape:document-units="mm"
     showgrid="false"
     inkscape:zoom="0.82468929"
     inkscape:cx="432.28402"
     inkscape:cy="346.79728"
     inkscape:window-width="1920"
     inkscape:window-height="1003"
     inkscape:window-x="0"
     inkscape:window-y="0"
     inkscape:window-maximized="1"
     inkscape:current-layer="layer1" /><defs
     id="defs2" /><g
     inkscape:label="Layer 1"
     inkscape:groupmode="layer"
     id="layer1"
     transform="translate(4.0292969,-13.882812)"><path
       id="path632"
       style="fill:#157f8f;fill-opacity:1;stroke-width:0.262248"
       d="M 99.65955,25.178825 A 92.5,92.5 0 0 0 7.1597697,117.67912 92.5,92.5 0 0 0 49.659501,195.47024 V 117.67912 A 50,50 0 0 1 99.65955,67.679073 50,50 0 0 1 149.6596,117.67912 50,50 0 0 1 99.65955,167.67917 50,50 0 0 1 74.659526,160.98035 v 45.72796 a 92.5,92.5 0 0 0 25.000024,3.47059 92.5,92.5 0 0 0 52.3658,-16.25275 33,33 0 0 1 -3.26389,-14.1888 33,33 0 0 1 33.00006,-33.00005 33,33 0 0 1 5.55521,0.47129 92.5,92.5 0 0 0 4.84312,-29.52947 92.5,92.5 0 0 0 -92.5003,-92.500295 z" /><circle
       style="fill:#f5bd22;fill-opacity:1;stroke-width:0.280197"
       id="path231"
       cx="99.659698"
       cy="117.67904"
       r="26" /><circle
       style="fill:#157f8f;fill-opacity:1;stroke-width:0.264583"
       id="path1114"
       cx="181.76161"
       cy="179.73723"
       r="20" /></g></svg>
